name Walk6.mot
datacolumns 19
datarows 17
range 1.65500000 1.73500000
endheader

                time	   L_ground_force_vx	   L_ground_force_vy	   L_ground_force_vz	   L_ground_force_px	   L_ground_force_py	   L_ground_force_pz	   R_ground_force_vx	   R_ground_force_vy	   R_ground_force_vz	   R_ground_force_px	   R_ground_force_py	   R_ground_force_pz	   L_ground_torque_x	   L_ground_torque_y	   L_ground_torque_z	   R_ground_torque_x	   R_ground_torque_y	   R_ground_torque_z	
          1.65500000	         -0.03207643	          0.50063482	         -0.06159231	          0.00056512	          0.00000000	          0.00033914	         21.47495474	        680.72715577	         -9.86218964	         -0.10960966	          0.00000000	          0.32659011	          0.00000000	         -0.00011899	          0.00000000	          0.00000000	          0.81772428	          0.00000000	
          1.66000000	         -0.04850466	          0.56701544	         -0.06560655	          0.00059334	          0.00000000	          0.00035308	         24.60447312	        692.20460123	        -10.26352339	         -0.10846485	          0.00000000	          0.32663248	          0.00000000	         -0.00014457	          0.00000000	          0.00000000	          0.69216928	          0.00000000	
          1.66500000	         -0.06814052	          0.60059912	         -0.06377515	          0.00056416	          0.00000000	          0.00033127	         28.00505699	        703.38800389	        -10.69386817	         -0.10737266	          0.00000000	          0.32666993	          0.00000000	         -0.00016663	          0.00000000	          0.00000000	          0.56880246	          0.00000000	
          1.67000000	         -0.09035664	          0.57889808	         -0.05305404	          0.00044908	          0.00000000	          0.00025640	         31.68108495	        714.20354773	        -11.13043194	         -0.10633343	          0.00000000	          0.32670148	          0.00000000	         -0.00018048	          0.00000000	          0.00000000	          0.45195566	          0.00000000	
          1.67500000	         -0.11385650	          0.47366353	         -0.02979271	          0.00021424	          0.00000000	          0.00010803	         35.63055496	        724.58220830	        -11.54513030	         -0.10534629	          0.00000000	          0.32672577	          0.00000000	         -0.00017983	          0.00000000	          0.00000000	          0.34688128	          0.00000000	
          1.68000000	         -0.13646000	          0.25114690	          0.01015483	         -0.00017837	          0.00000000	         -0.00013665	         39.84171506	        734.46245200	        -11.91374136	         -0.10441008	          0.00000000	          0.32674163	          0.00000000	         -0.00015663	          0.00000000	          0.00000000	          0.25795062	          0.00000000	
          1.68500000	         -0.15487808	         -0.12681448	          0.07119583	         -0.00076862	          0.00000000	         -0.00050135	         44.29923639	        743.78902403	        -12.21995144	         -0.10352408	          0.00000000	          0.32674804	          0.00000000	         -0.00010113	          0.00000000	          0.00000000	          0.18734572	          0.00000000	
          1.69000000	         -0.16449806	         -0.70056001	          0.15760148	         -0.00159424	          0.00000000	         -0.00100824	         48.98908692	        752.50986245	        -12.45296411	         -0.10268866	          0.00000000	          0.32674371	          0.00000000	         -0.00000213	          0.00000000	          0.00000000	          0.13500065	          0.00000000	
          1.69500000	         -0.15921202	         -1.50884842	          0.27290401	         -0.00268508	          0.00000000	         -0.00167431	         53.89400695	        760.57534995	        -12.60407571	         -0.10190428	          0.00000000	          0.32672666	          0.00000000	          0.00015253	          0.00000000	          0.00000000	          0.09993211	          0.00000000	
          1.70000000	         -0.13133377	         -2.58319359	          0.41904771	         -0.00405498	          0.00000000	         -0.00250649	         58.98687346	        767.94109908	        -12.66449781	         -0.10117112	          0.00000000	          0.32669338	          0.00000000	          0.00037488	          0.00000000	          0.00000000	          0.08122042	          0.00000000	
          1.70500000	         -0.07166385	         -3.93992535	          0.59526088	         -0.00569107	          0.00000000	         -0.00349505	         64.23055426	        774.56417086	        -12.62360479	         -0.10048815	          0.00000000	          0.32664101	          0.00000000	          0.00067539	          0.00000000	          0.00000000	          0.07789590	          0.00000000	
          1.71000000	          0.03022238	         -5.56968190	          0.79663175	         -0.00754048	          0.00000000	         -0.00460555	         69.58226015	        780.39793812	        -12.47147914	         -0.09985180	          0.00000000	          0.32656943	          0.00000000	          0.00106069	          0.00000000	          0.00000000	          0.08779644	          0.00000000	
          1.71500000	          0.18537443	         -7.42419301	          1.01239832	         -0.00949448	          0.00000000	         -0.00576924	         74.99584280	        785.39296881	        -12.20406586	         -0.09925762	          0.00000000	          0.32647955	          0.00000000	          0.00153071	          0.00000000	          0.00000000	          0.10723608	          0.00000000	
          1.72000000	          0.40445352	         -9.40046854	          1.22400319	         -0.01137056	          0.00000000	         -0.00687238	         80.42296007	        789.50083440	        -11.82635943	         -0.09870068	          0.00000000	          0.32637098	          0.00000000	          0.00207487	          0.00000000	          0.00000000	          0.13201398	          0.00000000	
          1.72500000	          0.69620053	        -11.32289076	          1.40302158	         -0.01289377	          0.00000000	         -0.00774503	         85.81522563	        792.67803785	        -11.35363381	         -0.09817594	          0.00000000	          0.32624289	          0.00000000	          0.00266753	          0.00000000	          0.00000000	          0.15752560	          0.00000000	
          1.73000000	          1.06528382	        -12.92424659	          1.50914725	         -0.01367887	          0.00000000	         -0.00815065	         91.12780778	        794.88767493	        -10.81068383	         -0.09767922	          0.00000000	          0.32609568	          0.00000000	          0.00326274	          0.00000000	          0.00000000	          0.17906187	          0.00000000	
          1.73500000	          1.50944540	        -13.82744587	          1.48851725	         -0.01321615	          0.00000000	         -0.00777795	         96.32540052	        796.09627714	        -10.23028521	         -0.09720653	          0.00000000	          0.32593191	          0.00000000	          0.00378850	          0.00000000	          0.00000000	          0.19230923	          0.00000000	
